<svg width="1024" height="1024" viewBox="0 0 100 100" xmlns="http://www.w3.org/2000/svg">
  <g style="transform: rotate(-45deg) scale(.70); transform-origin: 50% 50%;">
    <polygon points="0,0 0,100 100,100 100,0" fill="#000000" />
    <g>
      <polygon points="0,100 0,0 10,100" fill="#B8412B" fill-opacity=".3" />
      <polygon points="0,100 0,10 20,100" fill="#B8412B" fill-opacity=".3" />
      <polygon points="0,100 0,20 30,100" fill="#B75A2F" fill-opacity=".3" />
      <polygon points="0,100 0,30 40,100" fill="#B75A2F" fill-opacity=".3" />
      <polygon points="0,100 0,40 50,100" fill="#BC7329" fill-opacity=".3" />
      <polygon points="0,100 0,50 60,100" fill="#BC7329" fill-opacity=".3" />
      <polygon points="0,100 0,60 70,100" fill="#C69733" fill-opacity=".3" />
      <polygon points="0,100 0,70 80,100" fill="#C69733" fill-opacity=".3" />
      <polygon points="0,100 0,80 90,100" fill="#CAB43C" fill-opacity=".3" />
      <polygon points="0,100 0,90 100,100" fill="#CAB43C" fill-opacity=".3" />
    </g>
    <!-- <g>
      <polygon points="100,0 100,10 0,0" fill="#CAB43C" fill-opacity=".3" />
      <polygon points="100,0 100,20 10,0" fill="#CAB43C" fill-opacity=".3" />
      <polygon points="100,0 100,30 20,0" fill="#C69733" fill-opacity=".3" />
      <polygon points="100,0 100,40 30,0" fill="#C69733" fill-opacity=".3" />
      <polygon points="100,0 100,50 40,0" fill="#BC7329" fill-opacity=".3" />
      <polygon points="100,0 100,60 50,0" fill="#BC7329" fill-opacity=".3" />
      <polygon points="100,0 100,70 60,0" fill="#B75A2F" fill-opacity=".3" />
      <polygon points="100,0 100,80 70,0" fill="#B75A2F" fill-opacity=".3" />
      <polygon points="100,0 100,90 80,0" fill="#B8412B" fill-opacity=".3" />
      <polygon points="100,0 100,100 90,0" fill="#B8412B" fill-opacity=".3" />
    </g> -->
  </g>
</svg>